<svg width="128" height="128" viewBox="0 0 128 128" fill="none" xmlns="http://www.w3.org/2000/svg">
  <!-- Background circle with gradient -->
  <defs>
    <linearGradient id="bgGradientLarge" x1="0%" y1="0%" x2="100%" y2="100%">
      <stop offset="0%" style="stop-color:#4F46E5;stop-opacity:1" />
      <stop offset="100%" style="stop-color:#7C3AED;stop-opacity:1" />
    </linearGradient>
    <linearGradient id="deltaGradientLarge" x1="0%" y1="0%" x2="100%" y2="100%">
      <stop offset="0%" style="stop-color:#FFFFFF;stop-opacity:1" />
      <stop offset="100%" style="stop-color:#E0E7FF;stop-opacity:1" />
    </linearGradient>
    <filter id="glow">
      <feGaussianBlur stdDeviation="3" result="coloredBlur"/>
      <feMerge> 
        <feMergeNode in="coloredBlur"/>
        <feMergeNode in="SourceGraphic"/>
      </feMerge>
    </filter>
  </defs>
  
  <!-- Main circle background with subtle shadow -->
  <circle cx="64" cy="64" r="58" fill="url(#bgGradientLarge)" stroke="#3730A3" stroke-width="3" filter="url(#glow)"/>
  
  <!-- Delta symbol (triangle) - main element -->
  <path d="M64 28 L92 88 L36 88 Z" fill="none" stroke="url(#deltaGradientLarge)" stroke-width="4" stroke-linejoin="round"/>
  
  <!-- Inner accent triangle for depth -->
  <path d="M64 38 L82 78 L46 78 Z" fill="none" stroke="url(#deltaGradientLarge)" stroke-width="2" stroke-opacity="0.6"/>
  
  <!-- Route points representing journey -->
  <circle cx="64" cy="34" r="3" fill="#FFFFFF"/>
  <circle cx="54" cy="82" r="3" fill="#FFFFFF"/>
  <circle cx="74" cy="82" r="3" fill="#FFFFFF"/>
  
  <!-- Subtle motion lines suggesting movement -->
  <path d="M32 52 L38 52" stroke="#FFFFFF" stroke-width="2" stroke-opacity="0.4"/>
  <path d="M90 52 L96 52" stroke="#FFFFFF" stroke-width="2" stroke-opacity="0.4"/>
  <path d="M32 64 L40 64" stroke="#FFFFFF" stroke-width="2" stroke-opacity="0.3"/>
  <path d="M88 64 L96 64" stroke="#FFFFFF" stroke-width="2" stroke-opacity="0.3"/>
  <path d="M32 76 L36 76" stroke="#FFFFFF" stroke-width="2" stroke-opacity="0.2"/>
  <path d="M92 76 L96 76" stroke="#FFFFFF" stroke-width="2" stroke-opacity="0.2"/>
  
  <!-- Small accent dots for rhythm/pattern -->
  <circle cx="48" cy="48" r="1.5" fill="#FFFFFF" opacity="0.6"/>
  <circle cx="80" cy="48" r="1.5" fill="#FFFFFF" opacity="0.6"/>
  <circle cx="64" cy="58" r="1" fill="#FFFFFF" opacity="0.4"/>
</svg>
